<svg width="22" height="22" viewBox="0 0 22 22" fill="none" xmlns="http://www.w3.org/2000/svg">
<g id="Filter">
<path id="Vector" d="M1.375 4.8125H1.47262C1.62269 5.40209 1.96491 5.92487 2.44524 6.29826C2.92557 6.67165 3.51661 6.87435 4.125 6.87435C4.73339 6.87435 5.32443 6.67165 5.80476 6.29826C6.28509 5.92487 6.62731 5.40209 6.77737 4.8125H20.625C20.8073 4.8125 20.9822 4.74006 21.1111 4.61113C21.2401 4.4822 21.3125 4.30733 21.3125 4.125C21.3125 3.94266 21.2401 3.76779 21.1111 3.63886C20.9822 3.50993 20.8073 3.4375 20.625 3.4375H6.77737C6.62731 2.84791 6.28509 2.32512 5.80476 1.95174C5.32443 1.57835 4.73339 1.37564 4.125 1.37564C3.51661 1.37564 2.92557 1.57835 2.44524 1.95174C1.96491 2.32512 1.62269 2.84791 1.47262 3.4375H1.375C1.19266 3.4375 1.0178 3.50993 0.888864 3.63886C0.759933 3.76779 0.6875 3.94266 0.6875 4.125C0.6875 4.30733 0.759933 4.4822 0.888864 4.61113C1.0178 4.74006 1.19266 4.8125 1.375 4.8125ZM4.125 2.75C4.39695 2.75 4.66279 2.83064 4.88891 2.98173C5.11503 3.13281 5.29126 3.34756 5.39533 3.59881C5.4994 3.85006 5.52663 4.12652 5.47358 4.39325C5.42053 4.65997 5.28957 4.90497 5.09727 5.09727C4.90497 5.28957 4.65997 5.42052 4.39325 5.47358C4.12653 5.52663 3.85006 5.4994 3.59881 5.39533C3.34756 5.29126 3.13282 5.11502 2.98173 4.88891C2.83064 4.66279 2.75 4.39695 2.75 4.125C2.75 3.76033 2.89487 3.41059 3.15273 3.15273C3.41059 2.89486 3.76033 2.75 4.125 2.75ZM20.625 10.3125H20.5274C20.3773 9.72291 20.0351 9.20012 19.5548 8.82674C19.0744 8.45335 18.4834 8.25064 17.875 8.25064C17.2666 8.25064 16.6756 8.45335 16.1952 8.82674C15.7149 9.20012 15.3727 9.72291 15.2226 10.3125H1.375C1.19266 10.3125 1.0178 10.3849 0.888864 10.5139C0.759933 10.6428 0.6875 10.8177 0.6875 11C0.6875 11.1823 0.759933 11.3572 0.888864 11.4861C1.0178 11.6151 1.19266 11.6875 1.375 11.6875H15.2226C15.3727 12.2771 15.7149 12.7999 16.1952 13.1733C16.6756 13.5466 17.2666 13.7494 17.875 13.7494C18.4834 13.7494 19.0744 13.5466 19.5548 13.1733C20.0351 12.7999 20.3773 12.2771 20.5274 11.6875H20.625C20.8073 11.6875 20.9822 11.6151 21.1111 11.4861C21.2401 11.3572 21.3125 11.1823 21.3125 11C21.3125 10.8177 21.2401 10.6428 21.1111 10.5139C20.9822 10.3849 20.8073 10.3125 20.625 10.3125ZM17.875 12.375C17.6031 12.375 17.3372 12.2944 17.1111 12.1433C16.885 11.9922 16.7087 11.7774 16.6047 11.5262C16.5006 11.2749 16.4734 10.9985 16.5264 10.7317C16.5795 10.465 16.7104 10.22 16.9027 10.0277C17.095 9.83543 17.34 9.70447 17.6068 9.65142C17.8735 9.59836 18.1499 9.62559 18.4012 9.72966C18.6524 9.83373 18.8672 10.01 19.0183 10.2361C19.1694 10.4622 19.25 10.728 19.25 11C19.25 11.3647 19.1051 11.7144 18.8473 11.9723C18.5894 12.2301 18.2397 12.375 17.875 12.375ZM20.625 17.1875H13.6524C13.5023 16.5979 13.1601 16.0751 12.6798 15.7017C12.1994 15.3283 11.6084 15.1256 11 15.1256C10.3916 15.1256 9.80057 15.3283 9.32024 15.7017C8.83991 16.0751 8.49769 16.5979 8.34763 17.1875H1.375C1.19266 17.1875 1.0178 17.2599 0.888864 17.3889C0.759933 17.5178 0.6875 17.6927 0.6875 17.875C0.6875 18.0573 0.759933 18.2322 0.888864 18.3611C1.0178 18.4901 1.19266 18.5625 1.375 18.5625H8.34763C8.49769 19.1521 8.83991 19.6749 9.32024 20.0483C9.80057 20.4216 10.3916 20.6244 11 20.6244C11.6084 20.6244 12.1994 20.4216 12.6798 20.0483C13.1601 19.6749 13.5023 19.1521 13.6524 18.5625H20.625C20.8073 18.5625 20.9822 18.4901 21.1111 18.3611C21.2401 18.2322 21.3125 18.0573 21.3125 17.875C21.3125 17.6927 21.2401 17.5178 21.1111 17.3889C20.9822 17.2599 20.8073 17.1875 20.625 17.1875ZM11 19.25C10.7281 19.25 10.4622 19.1694 10.2361 19.0183C10.01 18.8672 9.83374 18.6524 9.72967 18.4012C9.6256 18.1499 9.59837 17.8735 9.65142 17.6067C9.70447 17.34 9.83543 17.095 10.0277 16.9027C10.22 16.7104 10.465 16.5795 10.7318 16.5264C10.9985 16.4734 11.2749 16.5006 11.5262 16.6047C11.7774 16.7087 11.9922 16.885 12.1433 17.1111C12.2944 17.3372 12.375 17.603 12.375 17.875C12.375 18.2397 12.2301 18.5894 11.9723 18.8473C11.7144 19.1051 11.3647 19.25 11 19.25Z" fill="#0E0E0E" fill-opacity="0.6"/>
</g>
</svg>
