<svg xmlns="http://www.w3.org/2000/svg" width="20" height="20" viewBox="0 0 20 20" fill="#8D8E8F">
<path d="M8.33335 2.29166C11.6701 2.29166 14.375 4.99661 14.375 8.33333C14.375 9.77658 13.8689 11.1016 13.0246 12.1407L17.1086 16.2247C17.3527 16.4688 17.3527 16.8645 17.1086 17.1086C16.8868 17.3305 16.5395 17.3507 16.2949 17.1691L16.2248 17.1086L12.1407 13.0246C11.1016 13.8689 9.7766 14.375 8.33335 14.375C4.99664 14.375 2.29169 11.6701 2.29169 8.33333C2.29169 4.99661 4.99664 2.29166 8.33335 2.29166ZM8.33335 3.54166C5.68699 3.54166 3.54169 5.68696 3.54169 8.33333C3.54169 10.9797 5.68699 13.125 8.33335 13.125C10.9797 13.125 13.125 10.9797 13.125 8.33333C13.125 5.68696 10.9797 3.54166 8.33335 3.54166Z" fill="#8D8E8F"/>
</svg>