<svg width="17" height="20" viewBox="0 0 17 20" fill="none" xmlns="http://www.w3.org/2000/svg">
<g id="Group 2072">
<path id="Vector" d="M15.3571 0H2.14285C1.57453 0 1.02949 0.225764 0.627627 0.627627C0.225764 1.02949 0 1.57453 0 2.14285V18.2143C0.0185388 18.6962 0.223821 19.152 0.57242 19.4852C0.921018 19.8185 1.38559 20.0031 1.86785 20H8.57141C8.66613 20 8.75697 19.9623 8.82395 19.8954C8.89093 19.8284 8.92855 19.7375 8.92855 19.6428C8.92855 19.5481 8.89093 19.4573 8.82395 19.3903C8.75697 19.3233 8.66613 19.2857 8.57141 19.2857H1.86785C1.57439 19.2908 1.29035 19.182 1.07529 18.9823C0.860231 18.7825 0.730854 18.5073 0.714284 18.2143V18.1178C0.719333 18.0451 0.732511 17.9733 0.75357 17.9035C0.76592 17.8671 0.780227 17.8313 0.796427 17.7964C0.796427 17.7678 0.821427 17.7393 0.832141 17.7143C0.883823 17.6227 0.946161 17.5376 1.01786 17.4607C1.11823 17.3592 1.23785 17.2789 1.36971 17.2243C1.50157 17.1697 1.643 17.142 1.78571 17.1428H15.3571C15.4244 17.1429 15.4914 17.1358 15.5571 17.1214H15.6214L15.7143 17.0964V17.5C15.7143 17.5947 15.6766 17.6855 15.6097 17.7525C15.5427 17.8195 15.4518 17.8571 15.3571 17.8571H1.78571C1.69099 17.8571 1.60015 17.8947 1.53317 17.9617C1.4662 18.0287 1.42857 18.1195 1.42857 18.2143C1.42857 18.309 1.4662 18.3998 1.53317 18.4668C1.60015 18.5338 1.69099 18.5714 1.78571 18.5714H15.3571C15.4789 18.5704 15.5997 18.5487 15.7143 18.5071V18.9285C15.7143 19.0233 15.6766 19.1141 15.6097 19.1811C15.5427 19.248 15.4518 19.2857 15.3571 19.2857H11.7857C11.691 19.2857 11.6001 19.3233 11.5332 19.3903C11.4662 19.4573 11.4285 19.5481 11.4285 19.6428C11.4285 19.7375 11.4662 19.8284 11.5332 19.8954C11.6001 19.9623 11.691 20 11.7857 20H15.3571C15.6413 20 15.9138 19.8871 16.1147 19.6861C16.3157 19.4852 16.4285 19.2127 16.4285 18.9285V1.07143C16.4285 0.787266 16.3157 0.514745 16.1147 0.313814C15.9138 0.112882 15.6413 0 15.3571 0ZM1.46428 16.4607L1.36428 16.4857C1.29264 16.5022 1.22223 16.5237 1.15357 16.55C1.11785 16.55 1.08214 16.5785 1.04643 16.5928C0.982681 16.6226 0.920677 16.656 0.860713 16.6928L0.764284 16.7535L0.714284 16.7857V2.14285C0.714284 1.76397 0.864794 1.40061 1.1327 1.1327C1.40061 0.864794 1.76397 0.714284 2.14285 0.714284V16.4285H1.78571C1.67775 16.4283 1.57005 16.439 1.46428 16.4607ZM2.85714 16.4285V0.714284H15.3571C15.4518 0.714284 15.5427 0.751912 15.6097 0.818889C15.6766 0.885866 15.7143 0.976706 15.7143 1.07143V16.0714C15.7143 16.1661 15.6766 16.257 15.6097 16.3239C15.5427 16.3909 15.4518 16.4285 15.3571 16.4285H2.85714Z" fill="#134678"/>
<path id="Vector_2" d="M13.2143 3.57142H5.35714C5.26242 3.57142 5.17158 3.60904 5.1046 3.67602C5.03763 3.743 5 3.83384 5 3.92856V6.42855C5 6.52327 5.03763 6.61411 5.1046 6.68109C5.17158 6.74807 5.26242 6.7857 5.35714 6.7857H13.2143C13.309 6.7857 13.3998 6.74807 13.4668 6.68109C13.5338 6.61411 13.5714 6.52327 13.5714 6.42855V3.92856C13.5714 3.83384 13.5338 3.743 13.4668 3.67602C13.3998 3.60904 13.309 3.57142 13.2143 3.57142ZM12.8571 6.07141H5.71428V4.2857H12.8571V6.07141ZM12.5 12.1428H6.07143C5.97671 12.1428 5.88587 12.1805 5.81889 12.2474C5.75191 12.3144 5.71428 12.4053 5.71428 12.5C5.71428 12.5947 5.75191 12.6855 5.81889 12.7525C5.88587 12.8195 5.97671 12.8571 6.07143 12.8571H12.5C12.5947 12.8571 12.6855 12.8195 12.7525 12.7525C12.8195 12.6855 12.8571 12.5947 12.8571 12.5C12.8571 12.4053 12.8195 12.3144 12.7525 12.2474C12.6855 12.1805 12.5947 12.1428 12.5 12.1428ZM12.5 13.9285H6.07143C5.97671 13.9285 5.88587 13.9662 5.81889 14.0331C5.75191 14.1001 5.71428 14.191 5.71428 14.2857C5.71428 14.3804 5.75191 14.4712 5.81889 14.5382C5.88587 14.6052 5.97671 14.6428 6.07143 14.6428H12.5C12.5947 14.6428 12.6855 14.6052 12.7525 14.5382C12.8195 14.4712 12.8571 14.3804 12.8571 14.2857C12.8571 14.191 12.8195 14.1001 12.7525 14.0331C12.6855 13.9662 12.5947 13.9285 12.5 13.9285ZM10.3571 19.2857H9.99999C9.90527 19.2857 9.81443 19.3233 9.74745 19.3903C9.68048 19.4573 9.64285 19.5481 9.64285 19.6428C9.64285 19.7375 9.68048 19.8284 9.74745 19.8954C9.81443 19.9623 9.90527 20 9.99999 20H10.3571C10.4519 20 10.5427 19.9623 10.6097 19.8954C10.6766 19.8284 10.7143 19.7375 10.7143 19.6428C10.7143 19.5481 10.6766 19.4573 10.6097 19.3903C10.5427 19.3233 10.4519 19.2857 10.3571 19.2857Z" fill="#134678"/>
</g>
</svg>
