<svg width="26" height="22" viewBox="0 0 26 22" fill="none" xmlns="http://www.w3.org/2000/svg">
<g id="Group 2073">
<path id="Vector" d="M10 17C12.2092 17 14 15.2091 14 13C14 10.7909 12.2092 9 10 9C7.79089 9 6.00003 10.7909 6.00003 13C6.00003 15.2091 7.79089 17 10 17Z" stroke="#0E0E0E" stroke-opacity="0.6" stroke-linecap="round" stroke-linejoin="round"/>
<path id="Vector_2" d="M3.67371 20.9998C4.24184 19.803 5.13784 18.7918 6.25765 18.0838C7.37746 17.3758 8.67514 17 10 17C11.3249 17 12.6225 17.3758 13.7424 18.0838C14.8622 18.7918 15.7582 19.803 16.3263 20.9998L24 21C24.1313 21 24.2613 20.9741 24.3827 20.9239C24.504 20.8736 24.6142 20.8 24.7071 20.7071C24.8 20.6143 24.8736 20.504 24.9239 20.3827C24.9741 20.2614 25 20.1313 25 20V2C25 1.73478 24.8946 1.48043 24.7071 1.29289C24.5196 1.10536 24.2652 1 24 1H2C1.73478 1 1.48043 1.10536 1.29289 1.29289C1.10536 1.48043 1 1.73478 1 2V20.0001C1 20.1314 1.02587 20.2614 1.07612 20.3828C1.12638 20.5041 1.20004 20.6143 1.2929 20.7072C1.38576 20.8 1.496 20.8737 1.61732 20.9239C1.73865 20.9742 1.86868 21 2 21L3.67371 20.9998Z" stroke="#0E0E0E" stroke-opacity="0.6" stroke-linecap="round" stroke-linejoin="round"/>
<path id="Vector_3" d="M19 17H21V5H4.99997V7" stroke="#0E0E0E" stroke-opacity="0.6" stroke-linecap="round" stroke-linejoin="round"/>
</g>
</svg>
