<svg width="16" height="20" viewBox="0 0 16 20" fill="#134678" xmlns="http://www.w3.org/2000/svg">
<path id="6. Student in front of the laptop" d="M15.5169 13.1958C15.4812 12.7738 15.3178 12.3726 15.0483 12.0458C14.7788 11.719 14.4161 11.4821 14.0085 11.3667L9.5877 10.1042V9.1875C10.2125 8.87749 10.7385 8.39935 11.1066 7.80682C11.4746 7.21429 11.6701 6.53086 11.671 5.83333C12.0147 5.78085 12.3281 5.60701 12.5546 5.34329C12.7811 5.07958 12.9057 4.74346 12.9057 4.39583C12.9057 4.04821 12.7811 3.71208 12.5546 3.44837C12.3281 3.18466 12.0147 3.01081 11.671 2.95833V0.833333H13.7544C13.8649 0.833333 13.9709 0.789435 14.049 0.711294C14.1271 0.633154 14.171 0.527174 14.171 0.416667C14.171 0.30616 14.1271 0.200179 14.049 0.122039C13.9709 0.0438987 13.8649 0 13.7544 0L2.0877 0C1.9772 0 1.87121 0.0438987 1.79307 0.122039C1.71493 0.200179 1.67104 0.30616 1.67104 0.416667C1.67104 0.527174 1.71493 0.633154 1.79307 0.711294C1.87121 0.789435 1.9772 0.833333 2.0877 0.833333H2.50437V2.08333C2.50437 2.19384 2.54827 2.29982 2.62641 2.37796C2.70455 2.4561 2.81053 2.5 2.92104 2.5C3.03154 2.5 3.13752 2.4561 3.21566 2.37796C3.2938 2.29982 3.3377 2.19384 3.3377 2.08333V0.833333H4.17104V2.9375C3.81024 2.97106 3.47497 3.13811 3.2309 3.40594C2.98683 3.67376 2.85155 4.02306 2.85155 4.38542C2.85155 4.74777 2.98683 5.09707 3.2309 5.3649C3.47497 5.63272 3.81024 5.79977 4.17104 5.83333C4.1681 6.53439 4.36174 7.22224 4.72999 7.8188C5.09824 8.41537 5.62635 8.89675 6.25437 9.20833V10.125L1.82937 11.375C1.42259 11.4911 1.06079 11.7283 0.792105 12.0551C0.523416 12.3818 0.360562 12.7826 0.325202 13.2042C-0.0622976 17.8542 0.00436907 16.6667 0.00436907 18.3333C0.00436907 18.7754 0.179964 19.1993 0.492524 19.5118C0.805085 19.8244 1.22901 20 1.67104 20H14.171C14.6131 20 15.037 19.8244 15.3495 19.5118C15.6621 19.1993 15.8377 18.7754 15.8377 18.3333C15.8377 16.6667 15.9085 17.9167 15.5169 13.1958ZM14.6835 13.2625L14.9669 16.6667H13.1294C13.4044 12.8083 13.921 13.3333 9.24604 13.3333C9.3877 12.4792 9.24604 13.0125 9.68354 12.9167C9.9377 12.8583 9.90437 12.8083 10.6919 11.2958L13.7794 12.1792C14.0217 12.2477 14.2376 12.3877 14.3989 12.5811C14.5603 12.7744 14.6595 13.0119 14.6835 13.2625ZM3.36687 14.1667H12.4752L12.1169 19.1667H3.7252L3.36687 14.1667ZM7.64604 12.0125C7.70204 12.0618 7.77025 12.0951 7.84354 12.1091C7.91684 12.123 7.99252 12.117 8.0627 12.0917C8.24187 12.0167 8.04187 11.9125 8.55854 12.2875L8.4002 13.3333H7.44187L7.26687 12.2875L7.64604 12.0125ZM9.8752 11.05L9.45854 11.8833L8.80437 11.4125L9.3127 10.8875L9.8752 11.05ZM11.671 4.9625V3.7875C11.7917 3.83129 11.8959 3.91117 11.9696 4.01628C12.0433 4.1214 12.0828 4.24664 12.0828 4.375C12.0828 4.50336 12.0433 4.6286 11.9696 4.73372C11.8959 4.83883 11.7917 4.91871 11.671 4.9625ZM10.8377 0.833333V2.91667H5.00437V0.833333H10.8377ZM4.17104 3.7875V4.9625C4.05038 4.91871 3.94613 4.83883 3.87246 4.73372C3.79879 4.6286 3.75927 4.50336 3.75927 4.375C3.75927 4.24664 3.79879 4.1214 3.87246 4.01628C3.94613 3.91117 4.05038 3.83129 4.17104 3.7875ZM5.00437 5.83333V3.75H10.8377V5.83333C10.8377 6.60688 10.5304 7.34875 9.98343 7.89573C9.43645 8.44271 8.69458 8.75 7.92104 8.75C7.14749 8.75 6.40562 8.44271 5.85864 7.89573C5.31166 7.34875 5.00437 6.60688 5.00437 5.83333ZM8.75437 9.4875V10.2458L7.92104 11.1042L7.0877 10.2458V9.4875C7.63575 9.61664 8.20632 9.61664 8.75437 9.4875ZM6.54604 10.8875L7.05437 11.4125L6.4002 11.8833L5.98354 11.05L6.54604 10.8875ZM1.15854 13.2625C1.18019 13.0097 1.2783 12.7694 1.4398 12.5736C1.60131 12.3779 1.81857 12.236 2.0627 12.1667L5.1502 11.2833C5.94187 12.8 5.9127 12.8458 6.15854 12.9042C6.59604 13.0125 6.45437 12.4875 6.59604 13.3208C1.94604 13.3208 2.42937 12.775 2.7127 16.6542H0.875202L1.15854 13.2625ZM0.837702 18.3333V17.5H2.77104L2.89187 19.1667H1.67104C1.45002 19.1667 1.23806 19.0789 1.08178 18.9226C0.9255 18.7663 0.837702 18.5543 0.837702 18.3333ZM15.0044 18.3333C15.0044 18.5543 14.9166 18.7663 14.7603 18.9226C14.604 19.0789 14.392 19.1667 14.171 19.1667H12.9502L13.071 17.5H15.0044V18.3333Z" fill="#0E0E0E" fill-opacity="0.6"/>
</svg>
