<svg width="20" height="20" viewBox="0 0 20 20" fill="none" xmlns="http://www.w3.org/2000/svg">
<g id="User">
<g id="Group">
<path id="Vector" d="M5.92493 11.386C5.78347 11.3372 5.63728 11.3036 5.48876 11.2855C4.32048 11.1432 3.25809 11.975 3.11583 13.1433L2.66144 16.875H17.3386L16.8842 13.1433C16.8661 12.9947 16.8324 12.8485 16.7837 12.7071C16.4005 11.5943 15.1879 11.0028 14.0751 11.386C12.8022 11.8242 11.442 12.0424 10 12.0424C8.55797 12.0424 7.19781 11.8242 5.92493 11.386ZM10 10.7924C11.3063 10.7924 12.529 10.5963 13.6681 10.2041C15.4337 9.59615 17.3577 10.5346 17.9656 12.3001C18.0429 12.5246 18.0963 12.7565 18.125 12.9922L18.5794 16.7239C18.6628 17.4092 18.1749 18.0324 17.4897 18.1158C17.4395 18.1219 17.3891 18.125 17.3386 18.125H2.66144C1.97108 18.125 1.41144 17.5653 1.41144 16.875C1.41144 16.8245 1.4145 16.774 1.4206 16.7239L1.875 12.9922C2.1007 11.1386 3.78628 9.81896 5.63985 10.0447C5.87548 10.0733 6.10744 10.1268 6.33188 10.2041C7.47101 10.5963 8.69371 10.7924 10 10.7924Z" fill="white"/>
<path id="Vector_2" d="M10 10C7.58375 10 5.625 8.04125 5.625 5.625C5.625 3.20875 7.58375 1.25 10 1.25C12.4162 1.25 14.375 3.20875 14.375 5.625C14.375 8.04125 12.4162 10 10 10ZM10 8.75C11.7259 8.75 13.125 7.35089 13.125 5.625C13.125 3.89911 11.7259 2.5 10 2.5C8.27411 2.5 6.875 3.89911 6.875 5.625C6.875 7.35089 8.27411 8.75 10 8.75Z" fill="white"/>
</g>
</g>
</svg>
